<svg xmlns="http://www.w3.org/2000/svg" xmlns:xlink="http://www.w3.org/1999/xlink" width="44" height="44" viewBox="0 0 44 44">
    <defs>
        <path id="prefix__a" d="M9.552 14.667h3.281v16.5c0 1.008.825 1.833 1.834 1.833 1.008 0 1.833-.825 1.833-1.833v-16.5h3.282c.825 0 1.228-.99.641-1.559l-5.115-5.115c-.366-.366-.935-.366-1.301 0l-5.115 5.115c-.569.569-.165 1.559.66 1.559zM0 1.833c0 1.009.825 1.834 1.833 1.834H27.5c1.008 0 1.833-.825 1.833-1.834C29.333.825 28.508 0 27.5 0H1.833C.825 0 0 .825 0 1.833z"/>
    </defs>
    <g fill="none" fill-rule="evenodd" transform="translate(7.333 5.5)">
        <mask id="prefix__b" fill="#fff">
            <use xlink:href="#prefix__a"/>
        </mask>
        <use fill="#000" fill-rule="nonzero" xlink:href="#prefix__a"/>
        <path fill="#26A0F4" d="M-7.333 -5.5H36.667V38.5H-7.333z" mask="url(#prefix__b)"/>
    </g>
</svg>
