<svg xmlns="http://www.w3.org/2000/svg" width="36" height="42" viewBox="0 0 36 42">
    <g fill="none" fill-rule="evenodd">
        <g fill="#B5BABD">
            <g>
                <g>
                    <path d="M34 8c1.105 0 2 .895 2 2v38c0 1.105-.895 2-2 2H2c-1.105 0-2-.895-2-2V10c0-1.105.895-2 2-2h32zm0 2H2v38h32V10zM17 42c.552 0 1 .448 1 1s-.448 1-1 1H6c-.552 0-1-.448-1-1s.448-1 1-1h11zm13-6c.552 0 1 .448 1 1s-.448 1-1 1H6c-.552 0-1-.448-1-1s.448-1 1-1h24zm0-6c.552 0 1 .448 1 1s-.448 1-1 1H6c-.552 0-1-.448-1-1s.448-1 1-1h24zm-1-16c1.105 0 2 .895 2 2v8c0 1.105-.895 2-2 2H7c-1.105 0-2-.895-2-2v-8c0-1.105.895-2 2-2h22zm0 2H7v8h22v-8z" transform="translate(-142 -1334) translate(142 1238) translate(0 88)"/>
                </g>
            </g>
        </g>
    </g>
</svg>
