<?xml version="1.0" encoding="UTF-8"?>
<svg width="24px" height="24px" viewBox="0 0 24 24" version="1.1" xmlns="http://www.w3.org/2000/svg" xmlns:xlink="http://www.w3.org/1999/xlink">
    <!-- Generator: sketchtool 58 (101010) - https://sketch.com -->
    <title>09D66C79-2CBE-4C7F-983F-4F36F6D83217</title>
    <desc>Created with sketchtool.</desc>
    <g id="UI-Style-Guide" stroke="none" stroke-width="1" fill="none" fill-rule="evenodd">
        <g id="Components-—-Custom-alerts-(Branded-messages-for-tips)" transform="translate(-281.000000, -395.000000)">
            <g id="Components-/-Alerts-/-Branded-messages-/-Simple-/-Normal" transform="translate(265.000000, 383.000000)">
                <g id="Icons-/-Custom-/-with-circle-BG-/-Lamp" transform="translate(16.000000, 12.000000)">
                    <g id="Group-9">
                        <circle id="BG-Icon-Copy" fill="#00B786" cx="12" cy="12" r="12"></circle>
                        <g id="bulb-61" transform="translate(6.000000, 3.750000)" fill="#DAF8F1">
                            <path d="M7.96875,15.1875 C8.38296356,15.1875 8.71875,15.5232864 8.71875,15.9375 C8.71875,16.3517136 8.38296356,16.6875 7.96875,16.6875 L7.96875,16.6875 L4.03125,16.6875 C3.61703644,16.6875 3.28125,16.3517136 3.28125,15.9375 C3.28125,15.5232864 3.61703644,15.1875 4.03125,15.1875 L4.03125,15.1875 Z M6,0 C9.31385419,0 12,2.68614581 12,6 C12,8.20453778 10.7985365,10.1847093 8.93650101,11.2299848 L8.71875,11.3464041 L8.71875,13.546875 C8.71875,13.9265708 8.43659612,14.240366 8.07052056,14.2900284 L7.96875,14.296875 L4.03125,14.296875 C3.65155423,14.296875 3.33775904,14.0147211 3.28809662,13.6486456 L3.28125,13.546875 L3.28125,11.3464041 C1.29566109,10.3366983 0,8.2893277 0,6 C0,2.68614581 2.68614581,0 6,0 Z M6,1.5 C3.51457294,1.5 1.5,3.51457294 1.5,6 C1.5,7.84817776 2.6262442,9.48620632 4.31291871,10.1696822 C4.56062311,10.2700572 4.73341095,10.493101 4.77273753,10.7519212 L4.78125,10.8647813 L4.78125,12.796875 L7.21875,12.796875 L7.21875,10.8647813 C7.21875,10.5593312 7.40399055,10.2843965 7.68708129,10.1696822 C9.3737558,9.48620632 10.5,7.84817776 10.5,6 C10.5,3.51457294 8.48542706,1.5 6,1.5 Z M6,2.625 C6.41421356,2.625 6.75,2.96078644 6.75,3.375 C6.75,3.78921356 6.41421356,4.125 6,4.125 C4.96455731,4.125 4.125,4.96455731 4.125,6 C4.125,6.41421356 3.78921356,6.75 3.375,6.75 C2.96078644,6.75 2.625,6.41421356 2.625,6 C2.625,4.13613019 4.13613019,2.625 6,2.625 Z" id="Combined-Shape"></path>
                        </g>
                    </g>
                </g>
            </g>
        </g>
    </g>
</svg>