<?xml version="1.0" encoding="UTF-8"?>
<svg width="55px" height="60px" viewBox="0 0 55 60" version="1.1" xmlns="http://www.w3.org/2000/svg" xmlns:xlink="http://www.w3.org/1999/xlink">
    <!-- Generator: sketchtool 55.2 (78181) - https://sketchapp.com -->
    <title>7A28E5B7-670A-4754-A58D-1CC9E0024F10</title>
    <desc>Created with sketchtool.</desc>
    <g id="📑-Page-1" stroke="none" stroke-width="1" fill="none" fill-rule="evenodd" stroke-linecap="round" stroke-linejoin="round">
        <g id="Artboard" transform="translate(-522.000000, -3172.000000)" stroke="#26A0F4" stroke-width="3.75">
            <g id="Group-21" transform="translate(522.000000, 3172.000000)">
                <g id="target-center-2">
                    <path d="M25.0375,29.6475 L35.455,19.23" id="Path"></path>
                    <polygon id="Path" points="35.455 19.23 36.875 9.855 44.995 1.875 46.25 8.435 52.81 9.69 44.83 17.81"></polygon>
                    <path d="M50.135,23.7825 C52.8544146,34.091142 48.5588317,44.9709473 39.5305467,50.6413428 C30.5022617,56.3117384 18.8364444,55.4568108 10.7312855,48.5307936 C2.62612653,41.6047764 -0.037431639,30.2149716 4.15579183,20.4129212 C8.3490153,10.6108708 18.4259104,4.67131006 29.0325,5.75" id="Path"></path>
                    <path d="M39.3025,26.8425 C40.6506486,32.2783994 38.4016642,37.970971 33.7022741,41.0176479 C29.0028841,44.0643248 22.8881258,43.7940786 18.4758335,40.3447042 C14.0635412,36.8953298 12.3255192,31.0265495 14.1479619,25.7307767 C15.9704046,20.4350039 20.9519202,16.8786288 26.5525,16.875" id="Path"></path>
                    <path d="M13.7875,50.625 L11.9125,58.125" id="Path"></path>
                    <path d="M40.0375,50.625 L41.9125,58.125" id="Path"></path>
                </g>
            </g>
        </g>
    </g>
</svg>