<?xml version="1.0" encoding="UTF-8"?>
<svg width="60px" height="45px" viewBox="0 0 60 45" version="1.1" xmlns="http://www.w3.org/2000/svg" xmlns:xlink="http://www.w3.org/1999/xlink">
    <!-- Generator: sketchtool 55.2 (78181) - https://sketchapp.com -->
    <title>4EAAA954-B7C7-4CDB-AC7D-E57850FF8169</title>
    <desc>Created with sketchtool.</desc>
    <g id="📑-Page-1" stroke="none" stroke-width="1" fill="none" fill-rule="evenodd" stroke-linecap="round" stroke-linejoin="round">
        <g id="Artboard" transform="translate(-678.000000, -3180.000000)" stroke="#26A0F4" stroke-width="3.75">
            <g id="Group-22" transform="translate(678.000000, 3180.000000)">
                <g id="laptop-smiley-1">
                    <path d="M20.6225,22.56 C25.9352671,27.4005394 34.0597329,27.4005394 39.3725,22.56" id="Path"></path>
                    <path d="M24.3725,11.25 L24.3725,15" id="Path"></path>
                    <path d="M35.6225,11.25 L35.6225,15" id="Path"></path>
                    <path d="M7.5,26.25 L7.5,5.625 C7.5,3.55393219 9.17893219,1.875 11.25,1.875 L48.75,1.875 C50.8210678,1.875 52.5,3.55393219 52.5,5.625 L52.5,26.25" id="Path"></path>
                    <path d="M1.8725,33.75 C1.8725,36.2368378 2.86056346,38.6217847 4.61925775,40.3800101 C6.37795204,42.1382355 8.76316228,43.1256632 11.25,43.1250003 L48.75,43.1250003 C53.9276695,43.1250003 58.125,38.9276695 58.125,33.75 L1.8725,33.75 Z" id="Path"></path>
                </g>
            </g>
        </g>
    </g>
</svg>