<?xml version="1.0" encoding="UTF-8"?>
<svg width="73px" height="78px" viewBox="0 0 73 78" version="1.1" xmlns="http://www.w3.org/2000/svg" xmlns:xlink="http://www.w3.org/1999/xlink">
    <!-- Generator: sketchtool 55.2 (78181) - https://sketchapp.com -->
    <title>77B279E1-3724-4819-AF52-15E50B417F93</title>
    <desc>Created with sketchtool.</desc>
    <g id="📑-Page-1" stroke="none" stroke-width="1" fill="none" fill-rule="evenodd" stroke-linecap="round" stroke-linejoin="round">
        <g id="Artboard" transform="translate(-348.000000, -3164.000000)" stroke="#26A0F4" stroke-width="3.75">
            <g id="Group-20" transform="translate(348.000000, 3164.000000)">
                <path d="M63,9 L27,35" id="Path"></path>
                <path d="M22,12.5 L30,12.5" id="Path"></path>
                <path d="M25.5,9 L25.5,17" id="Path"></path>
                <path d="M9,27.5 L20,27.5" id="Path"></path>
                <path d="M14.5,22 L14.5,33" id="Path"></path>
                <path d="M51.3415,65 C50.6125,60.8065327 49.9945,55.8140704 49.6585,50" id="Path"></path>
                <path d="M20.3415,50 C20.0085,55.8165829 19.3875,60.8040201 18.6585,65" id="Path"></path>
                <path d="M48.0666667,31 C56.9495111,32.8694729 63,36.5811815 63,40.8574461 C63,47.010612 50.4634667,52 35,52 C19.5365333,52 7,47.010612 7,40.8574461 C7.00224112,40.2187029 7.1343109,39.5870088 7.38826667,39.0003537" id="Path"></path>
                <path d="M36.8888889,37 C45.3888889,37.1942494 52,38.6827148 52,40.4894684 C52,42.4272818 44.389037,44 35,44 C25.610963,44 18,42.4272818 18,40.4894684" id="Path"></path>
            </g>
        </g>
    </g>
</svg>