<?xml version="1.0" encoding="UTF-8"?>
<svg width="68px" height="70px" viewBox="0 0 68 70" version="1.1" xmlns="http://www.w3.org/2000/svg" xmlns:xlink="http://www.w3.org/1999/xlink">
    <!-- Generator: sketchtool 55.2 (78181) - https://sketchapp.com -->
    <title>63866831-83CE-4DA3-A7B1-C649FB1F126A</title>
    <desc>Created with sketchtool.</desc>
    <g id="📑-Page-1" stroke="none" stroke-width="1" fill="none" fill-rule="evenodd" stroke-linecap="round" stroke-linejoin="round">
        <g id="Artboard" transform="translate(-196.000000, -3168.000000)" stroke="#26A0F4" stroke-width="3.75">
            <g id="Group-27" transform="translate(196.000000, 3168.000000)">
                <g id="design-tool-pen-station">
                    <g id="Group-6">
                        <path d="M10.9,5.9525 C17.4,11.7725 15.83,9.4225 19.2025,11.595 C20.0625752,12.1655136 20.7410477,12.9706575 21.1575,13.915 C22.3208282,16.7263657 21.0356144,19.952988 18.2579277,21.1945862 C15.4802409,22.4361844 12.2188944,21.2418292 10.9,18.5 C8.94997863,14.5447913 8.94997863,9.90770871 10.9,5.9525 Z" id="Path"></path>
                        <path d="M16.0625,21.83 L18.3875,28.4325" id="Path"></path>
                        <path d="M35.25,62.15 L24,62.15 C17.7867966,62.15 12.75,57.1132034 12.75,50.9 L12.75,28.4325 L46.5,28.4325 L46.5,50.91 C46.4944806,57.1192978 41.4593003,62.15 35.25,62.15 L35.25,62.15 Z" id="Path"></path>
                        <path d="M50.25,50.91 L46.5,50.91 L46.5,28.4325 L50.25,28.4325 C56.4632034,28.4325 61.5,33.4692966 61.5,39.6825 L61.5,39.6825 C61.4875911,45.8869148 56.4544272,50.91 50.25,50.91 L50.25,50.91 Z" id="Path"></path>
                        <path d="M21.085,18.66 L27.15,28.4325" id="Path"></path>
                        <polyline id="Path" points="29.59 28.4325 34.6425 14.115 43.1525 5.9 44.6175 17.6375 40.8075 28.4325"></polyline>
                        <path d="M44.0325,19.3 C40.2934725,20.4709001 36.2301262,19.0363587 34.055,15.7775" id="Path"></path>
                    </g>
                </g>
            </g>
        </g>
    </g>
</svg>