<?xml version="1.0" encoding="UTF-8"?> <svg xmlns="http://www.w3.org/2000/svg" width="2104" height="184" viewBox="0 0 2104 184" fill="none"><path d="M149.771 94.5671C149.771 91.3833 148.413 88.5843 143.826 88.5843C141.988 88.5486 140.171 88.9795 138.545 89.8367L139.299 92.3943C140.458 91.7063 141.777 91.3343 143.124 91.3154C145.455 91.3154 145.84 92.6357 145.84 93.4882V93.6844C140.755 93.6844 137.541 95.4347 137.541 99.0183C137.539 99.5957 137.655 100.167 137.882 100.698C138.11 101.229 138.443 101.708 138.862 102.105C139.281 102.502 139.777 102.809 140.319 103.008C140.861 103.206 141.439 103.291 142.015 103.258C142.79 103.287 143.561 103.138 144.27 102.822C144.979 102.507 145.606 102.035 146.104 101.44H146.187C146.187 101.44 146.768 103.862 149.959 102.949C149.791 101.828 149.716 100.695 149.733 99.5615L149.771 94.5671ZM145.961 97.9319C145.965 98.1863 145.934 98.4401 145.87 98.6864C145.687 99.2182 145.34 99.6784 144.879 100.001C144.419 100.324 143.867 100.492 143.305 100.482C143.054 100.503 142.801 100.47 142.564 100.384C142.327 100.299 142.112 100.162 141.932 99.9852C141.753 99.8081 141.614 99.5941 141.526 99.3582C141.437 99.1222 141.401 98.8698 141.419 98.6185C141.419 96.6946 143.546 96.159 145.946 96.1741L145.961 97.9319Z" fill="#007DC3"></path><path d="M70.6667 84.2537C70.6667 84.2537 73.9863 97.8337 74.5144 100.052C75.1331 102.632 76.2421 103.575 79.456 102.941L81.5308 94.5141C82.0513 92.4168 82.4059 90.923 82.7379 88.7954H82.7982C83.0384 90.7175 83.3758 92.6262 83.8092 94.5141C83.8092 94.5141 84.6542 98.3467 85.0842 100.354C85.5143 102.36 86.7214 103.628 89.8674 102.941L94.809 84.2537H90.818L89.1356 92.3338C88.6754 94.6801 88.268 96.521 87.9511 98.6711H87.8908C87.6041 96.5436 87.2419 94.7782 86.7817 92.4847L85.0012 84.2537H80.8518L78.9657 92.281C78.43 94.7178 77.9321 96.6869 77.6152 98.7617H77.5624C77.238 96.8077 76.8079 94.3331 76.3402 91.9717C76.3402 91.9717 75.2236 86.2303 74.8313 84.2537" fill="#007DC3"></path><path d="M106.126 94.5671C106.126 91.3833 104.768 88.5843 100.18 88.5843C98.3426 88.5486 96.5256 88.9795 94.8994 89.8367L95.6538 92.3943C96.8121 91.7053 98.1313 91.3332 99.4789 91.3154C101.81 91.3154 102.195 92.6357 102.195 93.4882V93.6844C97.1099 93.6844 93.896 95.4347 93.896 99.0183C93.894 99.5957 94.0102 100.167 94.2373 100.698C94.4645 101.229 94.7979 101.708 95.217 102.105C95.636 102.502 96.1319 102.809 96.6741 103.008C97.2163 103.206 97.7934 103.291 98.3698 103.258C99.1449 103.287 99.9161 103.138 100.625 102.822C101.333 102.507 101.961 102.035 102.459 101.44H102.542C102.542 101.44 103.123 103.862 106.314 102.949C106.143 101.828 106.067 100.695 106.088 99.5615L106.126 94.5671ZM102.353 97.9168C102.359 98.1718 102.326 98.4261 102.255 98.6713C102.073 99.2025 101.728 99.6625 101.269 99.9851C100.809 100.308 100.259 100.476 99.6977 100.467C99.4465 100.488 99.1937 100.455 98.9567 100.369C98.7197 100.283 98.5041 100.147 98.3248 99.9701C98.1455 99.793 98.0068 99.579 97.9182 99.3431C97.8295 99.1071 97.7932 98.8548 97.8115 98.6034C97.8115 96.6795 99.9315 96.1439 102.338 96.159L102.353 97.9168Z" fill="#007DC3"></path><path d="M112.455 98.9729V84.2537H108.661V102.941H112.455" fill="#007DC3"></path><path d="M162.098 84.2537V98.0374C162.098 99.9386 162.453 101.274 163.222 102.081C163.629 102.477 164.113 102.786 164.644 102.988C165.174 103.19 165.741 103.282 166.308 103.258C167.239 103.262 168.165 103.125 169.054 102.851L169.009 99.8858C168.537 99.9982 168.053 100.054 167.568 100.052C166.27 100.052 165.84 99.2294 165.84 97.5168V92.2357H169.145V88.6747H165.84V84.2537" fill="#007DC3"></path><path d="M152.305 88.9009V102.941H156.213V95.7513C156.21 95.4046 156.241 95.0585 156.304 94.7177C156.422 93.9963 156.804 93.3445 157.376 92.8887C157.947 92.4328 158.668 92.2055 159.397 92.2506C159.776 92.2527 160.155 92.2855 160.529 92.3487V88.6745C160.244 88.6109 159.953 88.5805 159.661 88.584C158.794 88.6141 157.958 88.9168 157.273 89.4491C156.588 89.9814 156.088 90.7162 155.844 91.549H155.738V88.9009" fill="#007DC3"></path><path d="M115.111 88.901V102.941H118.884V94.7102C118.874 94.3177 118.936 93.9267 119.065 93.5559C119.224 93.0564 119.532 92.6173 119.947 92.2966C120.362 91.976 120.865 91.7889 121.388 91.7604C122.897 91.7604 123.652 93.058 123.652 94.9366V102.941H127.424V94.6423C127.423 94.257 127.476 93.8735 127.582 93.5031C127.731 93.016 128.03 92.5886 128.437 92.2822C128.843 91.9758 129.337 91.8063 129.846 91.7981C131.4 91.7981 132.154 93.0731 132.154 95.2836V102.979H135.964V94.6801C135.964 90.3194 133.754 88.5917 131.249 88.5917C130.273 88.5738 129.312 88.8356 128.48 89.3461C127.802 89.8162 127.229 90.4226 126.798 91.1266H126.745C126.438 90.3593 125.902 89.7058 125.209 89.2559C124.516 88.806 123.7 88.5819 122.875 88.6143C122.05 88.5728 121.23 88.7627 120.507 89.1626C119.785 89.5626 119.188 90.1566 118.786 90.8777H118.733V88.901" fill="#007DC3"></path><path d="M189.651 86.8339C189.96 86.8701 190.272 86.8012 190.538 86.6384C190.803 86.4756 191.006 86.2282 191.114 85.9361L191.869 77.5089C191.869 76.679 190.895 76 189.666 76C188.436 76 187.47 76.679 187.47 77.5089L188.225 85.9361C188.3 86.4415 188.926 86.8339 189.681 86.8339" fill="#FDBB30"></path><path d="M185.101 89.4667C185.288 89.2175 185.385 88.9123 185.375 88.6012C185.365 88.29 185.25 87.9913 185.049 87.7541L178.123 82.8955C177.368 82.4805 176.327 82.986 175.709 84.0498C175.09 85.1136 175.203 86.3131 175.927 86.713L183.593 90.2815C183.899 90.333 184.214 90.2808 184.487 90.1332C184.76 89.9856 184.976 89.7511 185.101 89.4667Z" fill="#FDBB30"></path><path d="M194.208 89.4667C194.333 89.7511 194.549 89.9856 194.822 90.1332C195.095 90.2808 195.41 90.333 195.716 90.2815L203.389 86.713C204.144 86.2905 204.212 85.106 203.6 84.0498C202.989 82.9936 201.941 82.4806 201.186 82.8955L194.26 87.7541C194.061 87.9925 193.948 88.2908 193.938 88.6013C193.929 88.9118 194.023 89.2165 194.208 89.4667Z" fill="#FDBB30"></path><path d="M189.651 97.3583C189.96 97.3221 190.272 97.3909 190.538 97.5538C190.803 97.7166 191.006 97.964 191.114 98.2561L191.869 106.683C191.869 107.513 190.895 108.192 189.666 108.192C188.436 108.192 187.47 107.506 187.47 106.683L188.225 98.2561C188.3 97.7506 188.926 97.3583 189.681 97.3583" fill="#FDBB30"></path><path d="M194.207 94.7328C194.33 94.4468 194.546 94.2107 194.82 94.0628C195.094 93.9149 195.41 93.8639 195.716 93.918L203.389 97.4866C204.143 97.9015 204.211 99.086 203.6 100.15C202.989 101.214 201.94 101.689 201.186 101.297L194.26 96.4077C194.06 96.1699 193.946 95.8714 193.936 95.5606C193.926 95.2498 194.022 94.9448 194.207 94.6951" fill="#FDBB30"></path><path d="M185.101 94.7255C185.288 94.9747 185.385 95.2799 185.375 95.5911C185.365 95.9022 185.25 96.2009 185.049 96.4381L178.123 101.297C177.368 101.712 176.327 101.206 175.709 100.15C175.09 99.0938 175.203 97.8866 175.927 97.4792L183.593 93.9183C183.899 93.8627 184.216 93.9131 184.49 94.0611C184.764 94.2092 184.98 94.4462 185.101 94.7331" fill="#FDBB30"></path><path d="M457.957 111.68H452.722C452.56 110.811 452.307 110.2 451.962 109.855C451.403 109.294 450.444 109.003 449.126 109.003C447.807 109.003 446.923 109.219 446.427 109.655C446.235 109.822 446.083 110.031 445.982 110.265C445.882 110.499 445.835 110.753 445.847 111.007C445.847 111.802 446.95 112.437 449.132 112.924C450.955 113.291 452.757 113.756 454.53 114.316C454.816 114.424 455.069 114.516 455.252 114.607C457.475 115.655 458.574 117.25 458.574 119.383C458.574 121.989 457.491 123.888 455.343 125.081C455.069 125.227 454.816 125.352 454.53 125.48C452.994 126.107 451.347 126.414 449.689 126.383C446.963 126.383 444.76 125.896 443.08 124.936C442.1 124.389 441.285 123.588 440.719 122.617C440.175 121.615 439.903 120.487 439.93 119.346H445.418C445.398 119.765 445.479 120.184 445.656 120.565C445.832 120.947 446.098 121.28 446.43 121.536C447.105 122.06 448.238 122.334 449.844 122.334C451.052 122.334 451.951 122.08 452.543 121.573C452.752 121.416 452.922 121.211 453.039 120.977C453.156 120.742 453.217 120.483 453.217 120.221C453.217 119.369 452.138 118.7 449.986 118.23C446.771 117.554 444.75 116.98 443.914 116.581C441.711 115.567 440.628 113.961 440.628 111.751C440.583 110.082 441.199 108.464 442.342 107.249C443.786 105.711 445.951 104.95 448.825 104.95C451.187 104.95 453.086 105.288 454.513 105.964C454.631 106.013 454.744 106.075 454.85 106.147C455.821 106.65 456.628 107.422 457.174 108.371C457.718 109.387 457.987 110.528 457.957 111.68Z" fill="black"></path><path d="M455.157 98.8633C455.164 98.7667 455.139 98.6705 455.086 98.5895C455.034 98.5027 454.951 98.4388 454.853 98.4104C454.742 98.3841 454.63 98.3649 454.516 98.3529H453.686V99.3669H454.516C454.689 99.3743 454.86 99.3244 455.002 99.2249C455.053 99.1799 455.093 99.1241 455.12 99.0616C455.147 98.9991 455.16 98.9313 455.157 98.8633ZM455.592 98.3191C455.698 98.4589 455.755 98.6301 455.754 98.8058C455.756 98.9272 455.733 99.0477 455.686 99.1599C455.64 99.272 455.571 99.3735 455.484 99.4581C455.297 99.6464 455.045 99.7563 454.779 99.7657C454.886 99.8074 454.984 99.8681 455.069 99.9449L455.572 100.621L455.97 101.297H455.319L455.012 100.756C454.88 100.492 454.711 100.248 454.509 100.033C454.488 100.011 454.463 99.9925 454.435 99.9787L454.003 99.8536H453.666V101.297H453.123V97.8865H454.297C454.368 97.8865 454.442 97.9034 454.496 97.9034C454.715 97.8973 454.934 97.927 455.144 97.9913C455.328 98.0416 455.488 98.1583 455.592 98.3191Z" fill="black"></path><path d="M457.127 99.5496C457.133 99.0869 457.017 98.6309 456.79 98.228C456.56 97.819 456.223 97.4811 455.815 97.2512C455.421 97.0373 454.981 96.9213 454.533 96.9132C454.085 96.9209 453.645 97.0369 453.251 97.2512C452.841 97.48 452.503 97.8181 452.273 98.228C452.041 98.6299 451.918 99.0854 451.915 99.5496C451.92 100.007 452.043 100.456 452.273 100.851C452.488 101.251 452.809 101.583 453.201 101.811C453.597 102.036 454.047 102.153 454.503 102.149C454.959 102.151 455.407 102.035 455.805 101.811C456.208 101.588 456.539 101.255 456.76 100.851C456.995 100.458 457.122 100.008 457.127 99.5496ZM457.65 99.5496C457.651 100.095 457.508 100.632 457.235 101.104C456.978 101.599 456.575 102.002 456.082 102.26C455.611 102.539 455.073 102.684 454.526 102.679C453.981 102.685 453.444 102.54 452.975 102.26C452.479 102.004 452.075 101.6 451.818 101.104C451.544 100.632 451.4 100.096 451.403 99.5496C451.396 98.9913 451.539 98.4415 451.818 97.9576C452.089 97.4654 452.496 97.0626 452.992 96.7983C453.464 96.541 453.989 96.3986 454.526 96.3826C455.065 96.3908 455.592 96.5337 456.061 96.7983C456.565 97.0554 456.979 97.4597 457.249 97.9576C457.521 98.4434 457.659 98.9927 457.65 99.5496Z" fill="black"></path><path d="M426.936 73.9835L441.762 98.7349H426.936H417.943L403.788 75.0887L393.064 57.1953L403.788 50.7362L410.541 46.6667L426.936 73.9835Z" fill="black"></path><path d="M437.683 115.922V126.062H432.768V124.939C431.05 126.064 429.042 126.661 426.99 126.66H426.936C424.124 126.61 421.444 125.456 419.474 123.446C417.503 121.436 416.399 118.731 416.399 115.913C416.399 113.096 417.503 110.391 419.474 108.381C421.444 106.371 424.124 105.217 426.936 105.167H426.99C429.041 105.164 431.05 105.761 432.768 106.884V105.708H437.683V115.922ZM432.755 117.044V114.8C432.492 113.459 431.774 112.251 430.723 111.38C429.673 110.509 428.353 110.03 426.99 110.024H426.936C425.397 110.061 423.933 110.699 422.858 111.803C421.782 112.906 421.18 114.388 421.18 115.93C421.18 117.473 421.782 118.954 422.858 120.058C423.933 121.161 425.397 121.8 426.936 121.837H426.99C428.357 121.829 429.68 121.348 430.733 120.474C431.787 119.601 432.506 118.389 432.768 117.044H432.755Z" fill="black"></path><path d="M414.549 115.922V126.061H409.62V124.939C407.901 126.061 405.893 126.659 403.842 126.66H403.788C400.976 126.61 398.296 125.456 396.326 123.446C394.355 121.436 393.251 118.731 393.251 115.913C393.251 113.096 394.355 110.391 396.326 108.381C398.296 106.371 400.976 105.217 403.788 105.167H403.842C405.893 105.166 407.901 105.763 409.62 106.884V98.7346H414.549V115.922ZM409.62 117.044V114.8C409.357 113.457 408.638 112.247 407.584 111.376C406.53 110.505 405.208 110.027 403.842 110.024H403.788C402.249 110.061 400.785 110.699 399.71 111.803C398.634 112.906 398.032 114.388 398.032 115.93C398.032 117.473 398.634 118.954 399.71 120.058C400.785 121.161 402.249 121.8 403.788 121.837H403.842C405.209 121.829 406.532 121.348 407.585 120.474C408.639 119.601 409.358 118.388 409.62 117.044Z" fill="black"></path><path d="M403.788 89.0005L409.6 98.7347H403.788H385.801L372.588 76.7009L372.011 75.741L372.588 75.3962L389.505 65.1921L403.788 89.0005Z" fill="black"></path><path d="M391.185 105.174H385.821V126.068H391.185V105.174Z" fill="black"></path><path d="M391.185 98.8428H385.821V103.565H391.185V98.8428Z" fill="black"></path><path d="M383.372 115.922V126.061H378.437V124.939C376.712 126.062 374.699 126.659 372.642 126.66H372.578C369.766 126.61 367.086 125.456 365.116 123.446C363.145 121.436 362.041 118.731 362.041 115.913C362.041 113.096 363.145 110.391 365.116 108.381C367.086 106.371 369.766 105.217 372.578 105.167H372.632C374.688 105.166 376.701 105.762 378.427 106.884V98.7346H383.372V115.922ZM378.444 117.044V114.8C378.179 113.454 377.457 112.243 376.4 111.372C375.343 110.501 374.017 110.024 372.649 110.024H372.578C371.039 110.061 369.575 110.699 368.5 111.803C367.424 112.906 366.822 114.388 366.822 115.93C366.822 117.473 367.424 118.954 368.5 120.058C369.575 121.161 371.039 121.8 372.578 121.837H372.632C374.004 121.835 375.332 121.356 376.391 120.482C377.45 119.608 378.173 118.393 378.437 117.044H378.444Z" fill="black"></path><path d="M372.588 90.5925L377.462 98.7348H372.588H353.646L350.975 94.2665L368.469 83.7346L372.588 90.5925Z" fill="black"></path><path d="M359.985 115.922V126.062H355.057V124.939C353.329 126.061 351.316 126.658 349.258 126.66H349.204C346.392 126.61 343.712 125.456 341.742 123.446C339.771 121.436 338.667 118.731 338.667 115.913C338.667 113.096 339.771 110.391 341.742 108.381C343.712 106.371 346.392 105.217 349.204 105.167H349.258C351.315 105.167 353.329 105.763 355.057 106.884V105.708H359.985V115.922ZM355.057 117.044V114.8C354.791 113.454 354.068 112.243 353.01 111.372C351.953 110.501 350.627 110.024 349.258 110.024H349.204C347.665 110.061 346.201 110.699 345.126 111.803C344.05 112.906 343.448 114.388 343.448 115.93C343.448 117.473 344.05 118.954 345.126 120.058C346.201 121.161 347.665 121.8 349.204 121.837H349.258C350.628 121.833 351.955 121.353 353.012 120.479C354.07 119.605 354.792 118.391 355.057 117.044Z" fill="black"></path><path d="M597.438 101.05C597.273 99.649 597.352 97.6081 597.352 96.5847L599.489 72.4901H607.342L605.205 96.7974C604.749 102.073 606.806 105.808 612.066 105.808C617.405 105.808 620.242 102.031 620.692 97.3518L622.957 72.4891H630.847L628.667 97.0164C627.766 106.49 621.52 113.545 611.409 113.545C603.519 113.545 598.423 108.452 597.438 101.05ZM634.048 92.8926C635.077 81.3354 642.888 71.7282 656.323 71.7282C659.897 71.7282 663.306 72.5385 666.684 74.7499L665.777 84.3084C662.697 80.184 658.995 79.5503 655.586 79.5503C647.203 79.5503 642.601 85.3745 641.944 92.7277C641.323 99.947 645.024 105.771 653.164 105.771C656.701 105.771 660.438 104.747 664.383 100.8L663.519 110.614C659.696 112.698 656.122 113.63 652.549 113.63C639.187 113.63 633.069 103.725 634.048 92.8926ZM673.01 72.4891H680.857L677.978 105.211H689.24C690.062 105.211 692.734 105.174 693.471 105.174C693.434 105.558 692.734 112.692 692.734 112.692H669.43L673.01 72.4891ZM715.996 70.6676H715.423L693.891 112.698H702.274L705.269 106.32H720.476L722.369 112.698H730.667L716.009 70.6667L715.996 70.6676ZM714 87.4937C714.25 86.9393 714.451 86.2204 714.572 85.8366H714.7C714.737 86.3484 714.822 86.9454 714.986 87.5364C715.394 89.364 718.481 99.5255 718.481 99.5255H708.528C708.528 99.5255 713.872 87.7921 714 87.4937Z" fill="#2874AE"></path><path fill-rule="evenodd" clip-rule="evenodd" d="M936.836 104.358C929.14 109.997 917.983 113.005 908.378 113.005C894.91 113.005 882.785 108.054 873.612 99.8196C872.892 99.172 873.537 98.2895 874.402 98.7938C884.301 104.519 896.541 107.963 909.185 107.963C917.712 107.963 927.093 106.209 935.718 102.57C937.021 102.02 938.111 103.418 936.836 104.358Z" fill="#FF9900"></path><path fill-rule="evenodd" clip-rule="evenodd" d="M940.036 100.719C939.056 99.47 933.533 100.129 931.053 100.421C930.298 100.513 930.183 99.8597 930.863 99.3898C935.262 96.3125 942.481 97.2007 943.322 98.2322C944.164 99.2694 943.103 106.461 938.97 109.894C938.335 110.421 937.73 110.14 938.012 109.441C938.941 107.137 941.022 101.974 940.036 100.719Z" fill="#FF9900"></path><path fill-rule="evenodd" clip-rule="evenodd" d="M931.227 77.6657V74.6744C931.227 74.2217 931.572 73.918 931.988 73.918H945.461C945.894 73.918 946.24 74.2274 946.24 74.6744V77.2359C946.234 77.6657 945.871 78.2273 945.225 79.1155L938.243 89.0235C940.838 88.9604 943.576 89.3444 945.928 90.6624C946.459 90.9604 946.603 91.3959 946.643 91.8257V95.0175C946.643 95.453 946.159 95.963 945.652 95.6994C941.506 93.5391 936 93.3041 931.417 95.7224C930.95 95.9745 930.46 95.4702 930.46 95.0347V92.0033C930.46 91.5162 930.465 90.6853 930.956 89.9461L939.045 78.4164H932.005C931.572 78.4164 931.227 78.1127 931.227 77.6657Z" fill="black"></path><path fill-rule="evenodd" clip-rule="evenodd" d="M882.076 96.3297H877.977C877.585 96.301 877.273 96.0088 877.244 95.6363V74.7259C877.244 74.3076 877.596 73.9752 878.034 73.9752H881.857C882.255 73.9924 882.572 74.2961 882.601 74.6743V77.4077H882.675C883.673 74.766 885.547 73.5339 888.072 73.5339C890.638 73.5339 892.24 74.766 893.393 77.4077C894.385 74.766 896.639 73.5339 899.055 73.5339C900.773 73.5339 902.653 74.2388 903.8 75.8204C905.097 77.5796 904.832 80.1354 904.832 82.376L904.826 95.5733C904.826 95.9916 904.475 96.3297 904.037 96.3297H899.943C899.534 96.301 899.205 95.9744 899.205 95.5733V84.4906C899.205 83.6081 899.286 81.4076 899.09 80.5709C898.784 79.167 897.868 78.7716 896.68 78.7716C895.688 78.7716 894.65 79.4306 894.229 80.485C893.809 81.5394 893.849 83.3044 893.849 84.4906V95.5733C893.849 95.9916 893.497 96.3297 893.059 96.3297H888.966C888.55 96.301 888.228 95.9744 888.228 95.5733L888.222 84.4906C888.222 82.1583 888.608 78.7257 885.697 78.7257C882.75 78.7257 882.866 82.0723 882.866 84.4906V95.5733C882.866 95.9916 882.514 96.3297 882.076 96.3297Z" fill="black"></path><path fill-rule="evenodd" clip-rule="evenodd" d="M957.84 73.5339C963.922 73.5339 967.215 78.7257 967.215 85.3272C967.215 91.7052 963.577 96.7652 957.84 96.7652C951.867 96.7652 948.615 91.5734 948.615 85.1037C948.615 78.5939 951.907 73.5339 957.84 73.5339ZM957.874 77.8031C954.853 77.8031 954.663 81.8947 954.663 84.4447C954.663 87.0005 954.623 92.4559 957.84 92.4559C961.017 92.4559 961.167 88.0549 961.167 85.3731C961.167 83.6081 961.092 81.4993 960.555 79.826C960.094 78.3704 959.177 77.8031 957.874 77.8031Z" fill="black"></path><path fill-rule="evenodd" clip-rule="evenodd" d="M975.102 96.3297H971.02C970.611 96.301 970.282 95.9744 970.282 95.5733L970.276 74.6571C970.311 74.2732 970.651 73.9752 971.066 73.9752H974.865C975.223 73.9924 975.517 74.2331 975.598 74.5597V77.7573H975.673C976.82 74.8978 978.429 73.5339 981.259 73.5339C983.099 73.5339 984.892 74.1929 986.045 75.998C987.117 77.6713 987.117 80.485 987.117 82.5078V95.6707C987.071 96.0374 986.731 96.3297 986.327 96.3297H982.216C981.842 96.301 981.53 96.026 981.49 95.6707V84.3129C981.49 82.0265 981.755 78.6799 978.924 78.6799C977.927 78.6799 977.01 79.3446 976.555 80.3532C975.978 81.6311 975.903 82.9032 975.903 84.3129V95.5733C975.897 95.9916 975.54 96.3297 975.102 96.3297Z" fill="black"></path><path fill-rule="evenodd" clip-rule="evenodd" d="M920.486 86.3414C920.486 87.9287 920.526 89.2525 919.719 90.6622C919.067 91.8083 918.029 92.5131 916.882 92.5131C915.308 92.5131 914.386 91.3212 914.386 89.5619C914.386 86.0893 917.516 85.4589 920.486 85.4589V86.3414ZM924.619 96.2723C924.348 96.513 923.956 96.5301 923.651 96.3697C922.29 95.2465 922.042 94.7251 921.298 93.6535C919.05 95.9342 917.453 96.6161 914.541 96.6161C911.088 96.6161 908.407 94.5016 908.407 90.2668C908.407 86.9603 910.206 84.7082 912.777 83.608C915.003 82.6338 918.11 82.4619 920.486 82.1925V81.6653C920.486 80.6969 920.56 79.5508 919.984 78.7142C919.488 77.9635 918.531 77.654 917.684 77.654C916.121 77.654 914.732 78.4505 914.391 80.1009C914.322 80.4677 914.051 80.8287 913.677 80.8459L909.704 80.4218C909.37 80.3473 908.995 80.078 909.093 79.568C910.004 74.7773 914.363 73.3333 918.26 73.3333C920.255 73.3333 922.861 73.8605 924.435 75.3618C926.43 77.2128 926.239 79.6826 926.239 82.3702V88.7195C926.239 90.6278 927.035 91.4644 927.785 92.4959C928.044 92.8626 928.102 93.3039 927.767 93.579C926.931 94.2723 925.444 95.5617 924.625 96.2837L924.619 96.2723" fill="black"></path><path fill-rule="evenodd" clip-rule="evenodd" d="M866.745 86.3414C866.745 87.9287 866.786 89.2525 865.979 90.6622C865.327 91.8083 864.295 92.5131 863.142 92.5131C861.568 92.5131 860.651 91.3212 860.651 89.5619C860.651 86.0893 863.782 85.4589 866.745 85.4589V86.3414ZM870.879 96.2723C870.608 96.513 870.216 96.5301 869.911 96.3697C868.55 95.2465 868.308 94.7251 867.558 93.6535C865.31 95.9342 863.719 96.6161 860.801 96.6161C857.353 96.6161 854.667 94.5016 854.667 90.2668C854.667 86.9603 856.471 84.7082 859.037 83.608C861.262 82.6338 864.37 82.4619 866.745 82.1925V81.6653C866.745 80.6969 866.82 79.5508 866.25 78.7142C865.748 77.9635 864.791 77.654 863.949 77.654C862.387 77.654 860.991 78.4505 860.651 80.1009C860.582 80.4677 860.311 80.8287 859.942 80.8459L855.964 80.4218C855.63 80.3473 855.261 80.078 855.353 79.568C856.27 74.7773 860.622 73.3333 864.52 73.3333C866.515 73.3333 869.121 73.8605 870.695 75.3618C872.69 77.2128 872.499 79.6826 872.499 82.3702V88.7195C872.499 90.6278 873.295 91.4644 874.045 92.4959C874.31 92.8626 874.367 93.3039 874.033 93.579C873.197 94.2723 871.71 95.5617 870.891 96.2837L870.879 96.2723" fill="black"></path><path fill-rule="evenodd" clip-rule="evenodd" d="M1201.12 64.809V61.3364H1187.3V80.3809H1201.12V77.2447H1191.15V72.0722H1199.88V68.6633H1191.15V64.809H1201.12Z" fill="#DA2427"></path><path fill-rule="evenodd" clip-rule="evenodd" d="M1197.27 82.3442V89.6802H1189.71V82.3442H1185.8V101.325H1189.71V92.8164H1197.27V101.325H1201.12V82.3442H1197.27Z" fill="#DA2427"></path><path fill-rule="evenodd" clip-rule="evenodd" d="M1201.12 106.697V103.289H1187.3V122.597H1201.12V119.133H1191.15V114.024H1199.88V110.879H1191.15V106.697H1201.12Z" fill="#DA2427"></path><path fill-rule="evenodd" clip-rule="evenodd" d="M1185.08 61.3364H1181.23V68.6633H1173.67V61.3364H1169.82V80.3809H1173.67V71.8722H1181.23V80.3809H1185.08V61.3364Z" fill="#DA2427"></path><path fill-rule="evenodd" clip-rule="evenodd" d="M1153.26 61.3364V64.809H1159.13V80.3809H1162.98V64.809H1168.85V61.3364H1153.26Z" fill="#DA2427"></path><path fill-rule="evenodd" clip-rule="evenodd" d="M1141.14 81.8169C1135.08 81.8169 1131.88 85.2894 1131.88 91.8164C1131.88 98.6887 1135.08 102.089 1141.14 102.089C1147.19 102.089 1150.34 98.6887 1150.34 91.8164C1150.34 85.2713 1147.2 81.8169 1141.14 81.8169ZM1136.06 91.8164C1136.06 87.4257 1137.75 85.2712 1141.14 85.2712C1144.76 85.2712 1146.49 87.4257 1146.49 91.8164C1146.49 96.4616 1144.79 98.6887 1141.14 98.6887C1137.75 98.6887 1136.06 96.4616 1136.06 91.8164Z" fill="#DA2427"></path><path fill-rule="evenodd" clip-rule="evenodd" d="M1126.34 82.3442V95.7617L1118.78 82.3442H1114.67V101.325H1118.32V87.9712L1126.08 101.325H1130.19V82.3442H1126.34Z" fill="#DA2427"></path><path fill-rule="evenodd" clip-rule="evenodd" d="M1144.27 111.143V106.697H1153.99V103.289H1140.42V122.597H1144.27V114.552H1152.81V111.143H1144.27Z" fill="#DA2427"></path><path fill-rule="evenodd" clip-rule="evenodd" d="M1184.37 85.7531V82.3442H1168.85V85.7531H1174.65V101.325H1178.56V85.7531H1184.37Z" fill="#DA2427"></path><path fill-rule="evenodd" clip-rule="evenodd" d="M1160.31 94.0619C1161.55 94.0619 1162.53 94.2527 1162.98 94.78L1163.7 101.325H1168.07V100.861C1167.61 100.607 1167.35 99.4252 1167.35 97.2253C1167.35 94.4982 1166.37 93.1074 1164.93 92.3802C1166.89 91.5984 1167.87 90.162 1167.87 87.7349C1167.87 84.3351 1165.91 82.3716 1161.81 82.3716H1152.29V101.352H1156.2V94.0801L1160.31 94.0619ZM1156.2 90.853V85.7441H1161C1162.96 85.7441 1163.94 86.4623 1163.94 88.1713C1163.94 89.8803 1162.96 90.853 1160.81 90.853H1156.2Z" fill="#DA2427"></path><path fill-rule="evenodd" clip-rule="evenodd" d="M1162.98 103.289H1158.35L1151.57 122.597H1155.68L1157.18 118.406H1164.22L1165.4 122.597H1169.57L1162.98 103.289ZM1160.57 107.643L1162.98 115.233H1158.16L1160.57 107.643Z" fill="#DA2427"></path><path fill-rule="evenodd" clip-rule="evenodd" d="M1181.96 109.634H1185.8C1185.68 108.001 1185.02 106.456 1183.91 105.252C1182.18 103.675 1179.92 102.809 1177.58 102.825C1176.39 102.805 1175.21 103.037 1174.12 103.507C1173.02 103.977 1172.04 104.674 1171.24 105.552C1169.58 107.621 1168.72 110.224 1168.82 112.879C1168.82 119.688 1171.69 123.087 1177.29 123.087C1182.18 123.087 1184.87 120.669 1185.77 116.024H1181.93C1181.73 117.024 1181.18 117.917 1180.37 118.542C1179.57 119.166 1178.57 119.479 1177.56 119.424C1174.36 119.424 1172.93 117.261 1172.93 113.061C1172.93 108.516 1174.36 106.252 1177.56 106.252C1179.71 106.252 1180.95 107.497 1181.93 109.652L1181.96 109.634Z" fill="#DA2427"></path><path fill-rule="evenodd" clip-rule="evenodd" d="M1133.64 122.333C1134.21 122.33 1134.77 122.12 1135.2 121.742C1135.59 121.286 1135.8 120.705 1135.79 120.106C1135.81 119.808 1135.76 119.509 1135.66 119.228C1135.56 118.947 1135.41 118.689 1135.2 118.47C1134.76 118.115 1134.2 117.931 1133.64 117.952H1133.57C1133.28 117.925 1132.99 117.958 1132.71 118.047C1132.43 118.136 1132.17 118.279 1131.94 118.47C1131.76 118.695 1131.61 118.955 1131.52 119.236C1131.43 119.517 1131.4 119.813 1131.43 120.106V120.17C1131.41 120.739 1131.59 121.297 1131.94 121.742C1132.16 121.945 1132.42 122.102 1132.7 122.203C1132.98 122.305 1133.28 122.349 1133.57 122.333H1133.64ZM1133.57 122.86C1133.2 122.875 1132.83 122.812 1132.48 122.676C1132.14 122.54 1131.82 122.333 1131.56 122.07C1131.33 121.812 1131.15 121.512 1131.04 121.186C1130.93 120.859 1130.88 120.514 1130.9 120.17V120.106C1130.87 119.742 1130.91 119.374 1131.02 119.026C1131.14 118.678 1131.32 118.356 1131.56 118.079C1131.83 117.839 1132.15 117.658 1132.5 117.545C1132.85 117.433 1133.21 117.392 1133.57 117.424H1133.64C1133.98 117.401 1134.33 117.448 1134.65 117.56C1134.98 117.672 1135.27 117.849 1135.53 118.079C1135.79 118.344 1136 118.661 1136.13 119.01C1136.27 119.359 1136.33 119.732 1136.32 120.106C1136.33 120.47 1136.26 120.832 1136.13 121.169C1135.99 121.507 1135.79 121.813 1135.53 122.07C1135.28 122.322 1134.99 122.522 1134.66 122.658C1134.34 122.794 1133.99 122.863 1133.64 122.86H1133.57ZM1133.84 119.842H1133.9C1134.16 119.842 1134.29 119.715 1134.29 119.388V119.324C1134.27 119.324 1134.26 119.318 1134.25 119.306C1134.23 119.294 1134.23 119.278 1134.23 119.261C1134.16 119.188 1134.04 119.188 1133.84 119.188H1133.12V119.842H1133.84ZM1134.29 120.306L1134.82 120.961C1134.84 121.015 1134.85 121.076 1134.83 121.134C1134.82 121.193 1134.79 121.246 1134.75 121.288C1134.7 121.335 1134.63 121.36 1134.56 121.36C1134.49 121.36 1134.42 121.335 1134.36 121.288L1133.71 120.379H1133.12V121.097C1133.12 121.167 1133.09 121.234 1133.04 121.283C1133 121.333 1132.93 121.361 1132.86 121.361C1132.79 121.361 1132.72 121.333 1132.67 121.283C1132.62 121.234 1132.6 121.167 1132.6 121.097V118.942C1132.6 118.874 1132.63 118.809 1132.68 118.761C1132.73 118.712 1132.79 118.683 1132.86 118.679H1133.9C1134.13 118.663 1134.36 118.731 1134.55 118.87C1134.62 118.942 1134.69 118.942 1134.69 119.006C1134.74 119.058 1134.77 119.12 1134.8 119.187C1134.82 119.255 1134.82 119.326 1134.82 119.397C1134.82 119.924 1134.69 120.179 1134.29 120.306Z" fill="#DA2427"></path><path fill-rule="evenodd" clip-rule="evenodd" d="M1203.8 61.3364C1209.59 61.266 1215.33 62.3781 1220.67 64.605C1226.02 66.832 1230.86 70.1272 1234.9 74.2903C1243.63 83.0655 1248 93.5589 1248 105.77V122.597H1230.27V105.252C1230.32 101.981 1229.7 98.7339 1228.44 95.7151C1227.18 92.6964 1225.32 89.9704 1222.96 87.7077C1221.8 86.4987 1220.52 85.4225 1219.12 84.4988C1215.16 81.8845 1210.5 80.5404 1205.76 80.6445H1203.8V61.3364ZM1228.58 122.597H1214.75V109.179C1214.79 108.176 1214.61 107.177 1214.22 106.25C1213.84 105.323 1213.26 104.489 1212.53 103.807C1211.83 103.094 1211 102.529 1210.08 102.148C1209.17 101.767 1208.18 101.576 1207.19 101.589H1203.8V82.3444H1205.76C1210.58 82.2623 1215.28 83.8086 1219.12 86.7351C1220.12 87.3096 1221.02 88.0399 1221.79 88.8986C1223.99 91.0084 1225.72 93.5514 1226.89 96.3675C1228.06 99.1836 1228.63 102.212 1228.58 105.261V122.606V122.597ZM1213.05 122.597H1203.8V103.289H1207.19C1208.75 103.279 1210.25 103.89 1211.36 104.989C1212.45 106.11 1213.06 107.614 1213.05 109.179V122.597Z" fill="#DA2427"></path><path fill-rule="evenodd" clip-rule="evenodd" d="M1459.47 62.4457C1470.08 68.0273 1477.33 79.1553 1477.33 91.9825C1477.33 104.81 1470.08 115.973 1459.47 121.52V117.706C1463.53 115.278 1466.96 111.881 1469.46 107.86L1459.47 103.804V97.6334L1470.43 106.197C1472.72 101.967 1474 97.1474 1474 91.9817C1474 81.0957 1468.18 71.5282 1459.47 66.258V62.4457ZM1444.04 58.6667C1449.59 58.6667 1454.82 60.0194 1459.47 62.4457V66.2597C1455.2 63.6931 1450.21 62.1685 1444.94 61.9948L1448.75 89.279L1459.47 97.6343V103.805L1443.96 97.5299L1428.56 103.84V97.7027L1439.35 89.2782L1443.13 61.9939C1437.79 62.1676 1432.83 63.6931 1428.56 66.258V62.4457C1433.18 60.0194 1438.45 58.6667 1444.04 58.6667ZM1459.47 121.52C1454.82 123.947 1449.58 125.333 1444.04 125.333C1438.45 125.333 1433.18 123.947 1428.56 121.554V117.706C1433.07 120.444 1438.38 122.004 1444.04 122.004C1449.65 122.004 1454.93 120.444 1459.47 117.706V121.52ZM1428.56 121.554C1417.92 115.973 1410.67 104.81 1410.67 91.9825C1410.67 79.1553 1417.92 68.0273 1428.56 62.4457V66.2597C1419.82 71.529 1414 81.0624 1414 91.9825C1414 97.1474 1415.31 102.037 1417.6 106.266L1428.56 97.7027V103.84L1418.61 107.929C1421.11 111.918 1424.51 115.279 1428.56 117.706V121.554Z" fill="#777A7F"></path><path fill-rule="evenodd" clip-rule="evenodd" d="M1768.79 77.3332L1761.54 92.5749L1758.8 86.792H1755.84L1760.34 96.2507H1762.73L1771.73 77.3358V77.3332H1768.79Z" fill="#EA1923"></path><path d="M1691.73 80.0923H1697.62V85.2079H1691.73V80.0923ZM1645.35 105.636H1651.51L1658.19 86.7913H1652.3L1648.54 98.9003H1648.47L1644.71 86.7913H1638.67L1645.35 105.636ZM1666.98 90.3627C1669.04 90.3627 1670.47 91.8714 1670.7 94.0798H1662.85C1663.3 91.8341 1664.54 90.3627 1666.98 90.3627ZM1667.28 102.029C1664.69 102.029 1663.11 100.373 1662.81 97.8335H1676.67C1676.7 93.7847 1675.62 90.5463 1673.32 88.5223C1671.71 87.0496 1669.57 86.2399 1666.87 86.2399C1661.08 86.2399 1657.07 90.5463 1657.07 96.1773C1657.07 101.846 1660.9 106.189 1667.24 106.189C1669.65 106.189 1671.56 105.563 1673.14 104.495C1674.83 103.355 1676.03 101.698 1676.37 100.042H1670.73C1670.17 101.294 1669.01 102.029 1667.28 102.029ZM1678.06 105.636H1683.91V96.987C1683.91 93.0497 1686.32 91.3187 1690 91.7974H1690.11V86.8293C1689.81 86.7185 1689.47 86.6818 1688.91 86.6818C1686.62 86.6818 1685.08 87.7125 1683.76 89.9202H1683.65V86.7913H1678.06V105.636ZM1691.73 105.636H1697.62V86.7913H1691.73V105.636ZM1699.24 105.636H1715.68V101.109H1706.37V100.999L1715.27 91.2092V86.7913H1699.24V91.3187H1708.25V91.4295L1699.24 101.294V105.636ZM1726.08 101.993C1723.3 101.993 1721.84 99.7107 1721.84 96.2513C1721.84 92.7546 1723.3 90.5083 1726.08 90.5083C1728.86 90.5083 1730.4 92.7546 1730.4 96.2513C1730.4 99.7107 1728.86 101.993 1726.08 101.993ZM1726.12 86.2759C1720 86.2759 1715.91 90.5831 1715.91 96.2513C1715.91 101.882 1720 106.225 1726.12 106.225C1732.24 106.225 1736.33 101.882 1736.33 96.2513C1736.33 90.5831 1732.24 86.2759 1726.12 86.2759ZM1737.61 105.636H1743.47V95.1465C1743.47 92.7546 1744.9 91.0617 1747 91.0617C1749.03 91.0617 1750.08 92.4596 1750.08 94.4476V105.636H1755.94V93.3428C1755.94 89.1845 1753.38 86.2399 1749.25 86.2399C1746.62 86.2399 1744.78 87.3447 1743.4 89.3687H1743.28V86.7913H1737.61V105.636Z" fill="#020202"></path><path d="M1900 118.121C1901.21 116.184 1902.4 114.265 1903.61 112.326L1904.62 112.445C1904.9 112.477 1905.17 112.525 1905.45 112.54C1906.63 112.605 1907.69 112.214 1908.68 111.627C1909.67 111.041 1910.47 110.244 1911.18 109.368C1911.97 108.386 1912.67 107.338 1913.28 106.236C1913.59 105.669 1913.85 105.076 1914.14 104.492C1914.5 103.762 1914.84 103.027 1915.21 102.299C1915.25 102.229 1915.27 102.15 1915.27 102.069C1915.27 101.989 1915.25 101.909 1915.21 101.839C1914.25 99.8228 1913.3 97.8045 1912.35 95.7839C1911.62 94.2234 1910.88 92.6593 1910.15 91.0915C1910.13 91.0417 1910.11 90.9905 1910.08 90.9228C1910.13 90.8839 1910.19 90.8478 1910.24 90.8149C1912.05 89.9028 1913.86 88.9925 1915.67 88.0841C1915.73 88.0479 1915.81 88.0169 1915.88 87.9914C1916.32 87.8531 1916.54 87.9499 1916.72 88.3539C1917.51 90.0139 1918.29 91.6739 1919.07 93.3339C1919.92 95.1148 1920.76 96.8942 1921.6 98.6723C1922.31 100.184 1923.02 101.699 1923.73 103.211C1924.18 104.166 1924.64 105.119 1925.1 106.072C1925.12 106.116 1925.15 106.158 1925.18 106.198C1925.25 106.079 1925.32 105.986 1925.37 105.885C1925.77 105.09 1926.17 104.293 1926.57 103.495C1926.77 103.092 1926.96 102.684 1927.17 102.286C1927.22 102.211 1927.24 102.127 1927.24 102.041C1927.25 101.955 1927.23 101.87 1927.19 101.793C1926.76 100.854 1926.34 99.9076 1925.92 98.9642C1925.3 97.591 1924.68 96.2178 1924.06 94.8446L1922.7 91.8012C1922.64 91.6808 1922.59 91.5591 1922.53 91.3959C1924.53 90.4054 1926.54 89.4357 1928.58 88.4438C1932.99 97.9405 1937.39 107.41 1941.81 116.931L1934.29 116.872C1932.35 112.722 1930.42 108.581 1928.46 104.388C1928.39 104.505 1928.34 104.57 1928.3 104.641C1927.67 105.922 1927.03 107.206 1926.4 108.486C1926.36 108.556 1926.34 108.636 1926.33 108.716C1926.33 108.797 1926.35 108.877 1926.39 108.949C1927.2 110.732 1928 112.517 1928.8 114.306C1929.15 115.108 1929.51 115.912 1929.86 116.718C1929.91 116.815 1929.94 116.917 1930 117.058H1929.63C1927.26 117.058 1924.89 117.058 1922.52 117.058C1922.41 117.07 1922.29 117.043 1922.2 116.982C1922.1 116.92 1922.03 116.829 1922 116.722C1920.99 114.607 1919.98 112.494 1918.96 110.384C1918.13 108.638 1917.29 106.892 1916.46 105.145C1916.39 105.007 1916.31 104.878 1916.22 104.697C1916.16 104.778 1916.11 104.863 1916.06 104.95C1915.54 106.079 1915.04 107.217 1914.5 108.334C1913.8 109.757 1913.09 111.17 1912.35 112.574C1911.76 113.703 1911.1 114.792 1910.36 115.83C1909.58 116.912 1908.73 117.927 1907.6 118.673C1906.54 119.382 1905.25 119.687 1903.97 119.53C1902.95 119.404 1901.95 119.148 1901 118.77C1900.62 118.628 1900.28 118.406 1900 118.121Z" fill="#C6003D"></path><path d="M1956.5 114.837H1956.16C1954.54 114.837 1952.91 114.837 1951.29 114.837C1951.19 114.843 1951.09 114.825 1951 114.784C1950.91 114.743 1950.83 114.681 1950.77 114.603C1950.35 114.106 1950.05 113.51 1949.9 112.868C1949.87 112.747 1949.84 112.626 1949.81 112.47C1949.72 112.517 1949.65 112.569 1949.57 112.626C1948.81 113.301 1947.97 113.874 1947.07 114.332C1946.21 114.76 1945.33 115.098 1944.35 115.046C1943.92 115.027 1943.51 114.9 1943.14 114.676C1942.93 114.539 1942.69 114.425 1942.48 114.281C1941.59 113.679 1940.94 112.852 1940.43 111.903C1939.98 111.093 1939.69 110.193 1939.59 109.26C1939.39 107.037 1939.86 105.017 1941.4 103.356C1942.07 102.658 1942.86 102.104 1943.74 101.722C1944.89 101.186 1946.08 100.728 1947.25 100.23C1947.77 100.012 1948.28 99.7826 1948.78 99.5429C1949.11 99.3736 1949.4 99.1237 1949.61 98.815C1950.1 98.1672 1949.68 97.202 1948.97 97.0287C1948.43 96.9013 1947.88 96.8664 1947.34 96.9254C1946.2 97.0389 1945.16 97.4626 1944.18 98.0594C1943.28 98.6299 1942.43 99.2786 1941.63 99.9986C1941.55 100.063 1941.47 100.119 1941.37 100.201C1941.36 100.146 1941.36 100.09 1941.36 100.035C1941.57 98.8922 1941.77 97.745 1942.17 96.6502C1942.38 96.1028 1942.69 95.5996 1943.07 95.1653C1943.21 95.0055 1943.38 94.8755 1943.57 94.7825C1944.71 94.2331 1945.93 93.8768 1947.18 93.727C1948.18 93.6005 1949.18 93.5567 1950.18 93.596C1951.35 93.6052 1952.48 94.0158 1953.4 94.7635C1953.97 95.214 1954.45 95.7881 1954.78 96.4463C1955.12 97.1045 1955.32 97.8312 1955.36 98.5763C1955.47 100.041 1955.44 101.505 1955.45 102.97C1955.47 105.913 1955.49 108.856 1955.48 111.799C1955.48 112.789 1955.79 113.649 1956.29 114.463C1956.34 114.542 1956.39 114.609 1956.44 114.693C1956.46 114.74 1956.48 114.788 1956.5 114.837ZM1949.78 107.014C1949.72 106.181 1949.67 105.389 1949.61 104.596C1949.58 104.136 1949.55 103.676 1949.51 103.217C1949.46 102.679 1949.16 102.377 1948.64 102.36C1948.5 102.35 1948.35 102.368 1948.22 102.414C1947.85 102.559 1947.45 102.689 1947.12 102.913C1946.5 103.333 1945.96 103.881 1945.54 104.524C1945.12 105.167 1944.83 105.891 1944.69 106.653C1944.52 107.571 1944.49 108.515 1944.62 109.442C1944.73 110.276 1945.1 110.929 1945.94 111.157C1946.14 111.209 1946.34 111.239 1946.54 111.249C1947.22 111.279 1947.81 111.026 1948.39 110.667C1948.73 110.475 1949.01 110.203 1949.23 109.875C1949.45 109.546 1949.59 109.169 1949.64 108.774C1949.71 108.176 1949.73 107.574 1949.78 107.014Z" fill="#C6003D"></path><path d="M1991.54 105.386C1991.54 104.219 1991.51 103.33 1991.54 102.444C1991.58 101.707 1991.68 100.973 1991.75 100.238C1991.76 100.147 1991.78 100.057 1991.78 99.9666C1991.89 98.4765 1992.6 97.3424 1993.77 96.5069C1994.38 96.0655 1995.01 95.6576 1995.66 95.2852C1996.31 94.9221 1997 94.6235 1997.68 94.3277C1998.21 94.093 1998.75 93.8893 1999.3 93.7176C1999.75 93.5762 2000.23 93.5449 2000.7 93.6261C2001.17 93.7073 2001.61 93.8988 2001.99 94.1856C2002.62 94.6163 2003.23 95.0728 2003.81 95.5551C2004.72 96.3018 2005.53 97.171 2006.21 98.1391C2006.47 98.5137 2006.65 98.9341 2006.75 99.378C2006.86 99.8403 2006.98 100.304 2007.07 100.772C2007.11 100.993 2007.1 101.224 2007.13 101.451C2007.3 102.943 2007.37 104.445 2007.34 105.947C2007.33 106.62 2007.28 107.292 2007.18 107.957C2006.95 109.291 2006.31 110.516 2005.36 111.453C2004.48 112.356 2003.51 113.165 2002.48 113.866C2001.68 114.403 2000.82 114.843 1999.86 114.987C1999.06 115.13 1998.23 115.033 1997.48 114.708C1996.12 114.12 1994.87 113.291 1993.78 112.259C1992.98 111.515 1992.35 110.595 1991.95 109.568C1991.75 109.024 1991.63 108.45 1991.61 107.869C1991.57 106.948 1991.56 106.028 1991.54 105.386ZM2002.06 104.964C2002.04 104.18 2002.02 103.396 2001.98 102.612C2001.95 102.149 2001.89 101.685 2001.84 101.223C2001.76 100.535 2001.71 99.8403 2001.57 99.1627C2001.43 98.2763 2000.95 97.4844 2000.24 96.9562C2000.07 96.8185 1999.86 96.7329 1999.64 96.7093C1999.43 96.6857 1999.21 96.725 1999.01 96.8227C1998.58 97.0152 1998.22 97.3397 1997.98 97.7515C1997.52 98.5397 1997.31 99.4096 1997.23 100.311C1997.16 101.029 1997.13 101.764 1997.07 102.489C1996.99 103.487 1996.99 104.49 1997.07 105.488C1997.16 106.484 1997.27 107.477 1997.38 108.472C1997.45 109.233 1997.59 109.98 1997.95 110.662C1998.13 111.055 1998.43 111.384 1998.79 111.608C1999.14 111.804 1999.51 111.916 1999.91 111.74C2000.42 111.518 2000.83 111.124 2001.08 110.624C2001.39 110.003 2001.61 109.343 2001.73 108.66C2001.98 107.44 2002.04 106.206 2002.06 104.964Z" fill="#C6003D"></path><path d="M2006.21 96.2485C2006.44 95.6902 2006.63 95.2171 2006.81 94.7355C2006.84 94.6668 2006.88 94.6087 2006.94 94.5716C2007 94.5346 2007.07 94.5212 2007.14 94.5338C2007.72 94.5338 2008.3 94.5338 2008.88 94.5338H2009.25V90.1298L2014.93 87.9321V94.3917C2015.79 94.4145 2016.63 94.3917 2017.51 94.4088L2016.86 96.2684L2014.93 96.2911V96.696C2014.93 101.866 2014.93 107.035 2014.93 112.205C2014.93 113.222 2015.2 114.161 2015.9 114.921C2015.93 114.958 2015.95 114.997 2015.97 115.038C2015.87 115.038 2015.79 115.051 2015.71 115.051C2014.24 115.051 2012.77 115.051 2011.3 115.051C2011.1 115.055 2010.91 114.99 2010.76 114.866C2010.18 114.424 2009.89 113.792 2009.7 113.099C2009.5 112.326 2009.38 111.535 2009.33 110.736C2009.2 108.871 2009.2 107.001 2009.21 105.132C2009.22 102.327 2009.24 99.5226 2009.25 96.7173V96.2443L2006.21 96.2485Z" fill="#C6003D"></path><path d="M2021.7 96.2338H2018.64C2018.69 96.0919 2018.71 95.9953 2018.75 95.9059C2018.9 95.524 2019.07 95.1479 2019.22 94.7617C2019.24 94.6865 2019.29 94.6214 2019.35 94.5783C2019.41 94.5352 2019.49 94.5172 2019.56 94.5275C2020.17 94.5374 2020.78 94.5275 2021.4 94.5275C2021.48 94.5275 2021.56 94.5161 2021.69 94.5076C2021.71 93.7723 2021.69 93.0455 2021.69 92.3201C2021.69 91.5946 2021.69 90.8806 2021.69 90.1154L2027.34 87.9321V94.4012H2029.94C2029.89 94.5587 2029.86 94.6609 2029.83 94.7631C2029.68 95.1748 2029.54 95.5879 2029.39 95.9968C2029.29 96.2807 2029.29 96.2807 2028.99 96.2807C2028.57 96.2807 2028.16 96.2807 2027.74 96.2807C2027.62 96.2807 2027.5 96.292 2027.37 96.2991C2027.36 96.4184 2027.34 96.5149 2027.34 96.6114C2027.34 101.844 2027.33 107.077 2027.34 112.309C2027.33 113.244 2027.65 114.15 2028.25 114.845C2028.29 114.891 2028.32 114.944 2028.4 115.039H2028.04C2026.66 115.039 2025.29 115.018 2023.91 115.05C2023.42 115.062 2023.1 114.833 2022.81 114.483C2022.39 113.951 2022.12 113.306 2022.03 112.621C2021.88 111.837 2021.79 111.044 2021.76 110.247C2021.69 108.64 2021.67 107.03 2021.67 105.42C2021.67 102.506 2021.68 99.5911 2021.69 96.6767L2021.7 96.2338Z" fill="#C6003D"></path><path d="M1963.82 113.92H1963.43C1961.94 113.92 1960.45 113.92 1958.95 113.92C1958.84 113.924 1958.72 113.904 1958.61 113.86C1958.5 113.815 1958.4 113.749 1958.32 113.665C1957.73 113.079 1957.35 112.321 1957.25 111.508C1957.19 111.1 1957.16 110.69 1957.16 110.278C1957.14 105.939 1957.12 101.6 1957.11 97.2616C1957.13 96.7659 1957.06 96.2712 1956.91 95.7968C1956.8 95.4905 1956.64 95.2015 1956.5 94.8846C1956.57 94.872 1956.63 94.8635 1956.7 94.8593C1958.35 94.8673 1960 94.8806 1961.64 94.8833C1961.73 94.8757 1961.81 94.8923 1961.89 94.9313C1961.97 94.9702 1962.03 95.0298 1962.07 95.103C1962.17 95.2578 1962.25 95.4169 1962.32 95.5797C1962.4 95.7502 1962.46 95.9259 1962.55 96.1377C1962.84 95.9286 1963.1 95.7635 1963.33 95.5584C1964.63 94.3839 1967.19 94.4212 1968.6 95.7355C1968.71 95.8367 1968.81 95.9512 1968.93 96.0791L1966.63 99.5334C1966.35 99.3842 1966.11 99.2417 1965.85 99.1232C1964.85 98.6532 1963.88 98.7104 1962.93 99.2657C1962.84 99.3115 1962.76 99.382 1962.71 99.4686C1962.66 99.5551 1962.64 99.654 1962.65 99.7531C1962.66 103.247 1962.65 106.742 1962.66 110.236C1962.65 110.998 1962.76 111.757 1963 112.484C1963.14 112.951 1963.38 113.384 1963.71 113.754C1963.73 113.787 1963.75 113.825 1963.82 113.92Z" fill="#C6003D"></path><path d="M1977.39 113.92H1977.01C1975.52 113.92 1974.02 113.92 1972.53 113.92C1972.42 113.926 1972.31 113.909 1972.2 113.869C1972.1 113.83 1972 113.769 1971.92 113.691C1971.43 113.221 1971.09 112.625 1970.93 111.973C1970.78 111.366 1970.71 110.743 1970.71 110.119C1970.7 105.707 1970.68 101.296 1970.68 96.8858C1970.7 96.2378 1970.5 95.6003 1970.13 95.0646C1970.11 95.0386 1970.09 95.011 1970.08 94.982C1970.07 94.9634 1970.07 94.9408 1970.06 94.8942C1970.12 94.8775 1970.19 94.8664 1970.26 94.8609C1971.91 94.8689 1973.56 94.8822 1975.2 94.8849C1975.29 94.876 1975.38 94.8941 1975.46 94.9368C1975.54 94.9795 1975.61 95.0449 1975.65 95.1245C1975.76 95.3095 1975.84 95.5012 1975.93 95.6929C1975.99 95.8261 1976.04 95.9592 1976.11 96.1389C1976.37 95.9459 1976.61 95.7888 1976.83 95.6064C1978.01 94.6252 1979.35 94.5307 1980.76 94.9408C1981.45 95.1378 1982.05 95.5405 1982.49 96.091L1980.19 99.5391C1979.9 99.3886 1979.65 99.2395 1979.39 99.1184C1978.4 98.6644 1977.43 98.719 1976.49 99.2728C1976.4 99.3229 1976.32 99.3986 1976.27 99.4905C1976.22 99.5824 1976.19 99.6867 1976.2 99.7907C1976.21 103.263 1976.2 106.735 1976.21 110.207C1976.21 110.893 1976.3 111.577 1976.48 112.241C1976.61 112.799 1976.88 113.318 1977.27 113.753C1977.3 113.781 1977.32 113.82 1977.39 113.92Z" fill="#C6003D"></path><path d="M1990.4 115.01C1990.28 115.02 1990.19 115.033 1990.1 115.033C1988.62 115.033 1987.13 115.033 1985.65 115.05C1985.56 115.056 1985.47 115.039 1985.39 114.999C1985.3 114.959 1985.23 114.897 1985.17 114.819C1984.65 114.147 1984.33 113.319 1984.25 112.444C1984.17 111.789 1984.13 111.129 1984.13 110.468C1984.13 106.452 1984.14 102.434 1984.14 98.417C1984.14 97.7791 1984.15 97.1468 1984.12 96.5061C1984.1 95.9331 1983.95 95.3751 1983.68 94.8816C1983.66 94.8449 1983.65 94.8054 1983.62 94.732C1983.75 94.732 1983.84 94.7137 1983.94 94.7137C1985.31 94.7137 1986.68 94.7137 1988.05 94.7137C1988.16 94.7047 1988.28 94.7303 1988.37 94.7878C1988.47 94.8452 1988.56 94.9321 1988.61 95.0383C1988.63 95.0764 1988.66 95.1131 1988.68 95.1526C1989.03 95.8936 1989.27 96.6641 1989.27 97.5166C1989.29 102.419 1989.32 107.32 1989.34 112.221C1989.34 112.885 1989.57 113.491 1989.85 114.067C1990 114.379 1990.19 114.67 1990.4 115.01Z" fill="#C6003D"></path><path d="M1961.67 67.5933C1961.74 67.7057 1961.79 67.7985 1961.84 67.8955C1962.64 69.5444 1963.45 71.1904 1964.24 72.8463C1964.6 73.5984 1964.93 74.3659 1965.24 75.1376C1965.47 75.6999 1965.63 76.2931 1965.48 76.899C1965.24 77.883 1964.92 78.8445 1964.2 79.6106C1963.55 80.3332 1962.7 80.8375 1961.76 81.0556C1961.5 81.1096 1961.23 81.1397 1960.97 81.1456C1959.77 81.192 1958.62 81.0134 1957.55 80.4427C1957.35 80.3387 1957.17 80.2066 1956.98 80.0983C1956.89 80.0483 1956.81 79.9761 1956.75 79.8883C1956.7 79.8005 1956.66 79.6998 1956.65 79.5951C1956.08 75.6465 1957.07 72.1772 1959.78 69.2379C1960.28 68.6912 1960.84 68.1967 1961.44 67.7619C1961.51 67.7043 1961.58 67.6635 1961.67 67.5933Z" fill="#C6003D"></path><path d="M1971.19 65.3333C1971.79 65.4061 1972.39 65.5444 1972.97 65.7456C1977.2 67.1873 1979.8 70.1255 1980.94 74.3497C1981.59 76.684 1981.48 79.1605 1980.62 81.4271C1980.39 82.0501 1980.09 82.647 1979.73 83.2076C1979.7 83.2624 1979.66 83.3129 1979.59 83.4123C1976.78 77.3773 1974 71.3841 1971.19 65.3333Z" fill="#C6003D"></path><path d="M1966.59 77.7627C1966.67 77.9156 1966.72 77.9968 1966.76 78.082C1968.21 81.1914 1969.66 84.2993 1971.11 87.406C1971.17 87.5086 1971.19 87.6249 1971.18 87.7412C1971.18 87.8575 1971.13 87.9689 1971.06 88.0622C1970.85 88.3666 1970.55 88.6024 1970.19 88.7388C1969.51 89.0042 1968.77 89.1085 1968.03 89.0432C1965.57 88.8795 1963.36 88.0433 1961.36 86.674C1960.37 86.0126 1959.53 85.166 1958.88 84.1843C1958.84 84.1221 1958.81 84.0571 1958.76 83.9651C1960.72 84.072 1962.42 83.4753 1963.91 82.3279C1965.4 81.1805 1966.39 79.7138 1966.59 77.7627Z" fill="#C6003D"></path><path d="M1965.54 65.765C1965.88 65.5202 1966.23 65.3084 1966.68 65.3356C1966.91 65.3471 1967.15 65.3356 1967.39 65.3356C1967.45 65.4415 1967.5 65.5388 1967.54 65.6404C1970.62 72.5014 1973.69 79.3614 1976.76 86.2205C1976.81 86.3186 1976.84 86.4288 1976.84 86.5403C1976.83 86.6517 1976.8 86.7605 1976.75 86.8559C1976.48 87.3424 1976.06 87.7216 1975.55 87.9321C1975.39 87.7332 1965.73 66.3646 1965.54 65.765Z" fill="#C6003D"></path><path d="M2031.09 115.051C2029.81 115.051 2028.81 114.071 2028.81 112.789C2028.81 111.508 2029.79 110.55 2031.05 110.531C2032.29 110.516 2033.33 111.454 2033.33 112.788C2033.33 114.065 2032.38 115.032 2031.09 115.051ZM2031.07 110.867C2030.82 110.868 2030.58 110.918 2030.35 111.016C2030.12 111.113 2029.91 111.256 2029.74 111.435C2029.39 111.797 2029.19 112.287 2029.19 112.797C2029.2 113.307 2029.4 113.795 2029.75 114.155C2030.11 114.514 2030.59 114.714 2031.08 114.712C2031.33 114.715 2031.57 114.667 2031.8 114.572C2032.03 114.477 2032.23 114.336 2032.4 114.158C2032.58 113.98 2032.71 113.769 2032.8 113.536C2032.89 113.304 2032.94 113.055 2032.93 112.805C2032.94 112.551 2032.9 112.299 2032.8 112.062C2032.71 111.826 2032.58 111.611 2032.4 111.43C2032.23 111.249 2032.02 111.105 2031.79 111.009C2031.56 110.912 2031.32 110.864 2031.07 110.867Z" fill="#C6003D"></path><path d="M2029.94 111.67C2030.43 111.67 2030.89 111.65 2031.35 111.67C2031.84 111.698 2032.1 111.894 2032.15 112.199C2032.2 112.547 2032.03 112.736 2031.56 112.879C2031.5 112.895 2031.45 112.915 2031.36 112.947L2032.2 113.887C2031.93 113.953 2031.75 113.929 2031.62 113.753C2031.48 113.557 2031.31 113.368 2031.15 113.178C2030.9 112.882 2030.88 112.878 2030.32 112.958V113.898H2029.95L2029.94 111.67ZM2030.34 111.956V112.664C2030.71 112.664 2031.06 112.716 2031.4 112.622C2031.5 112.596 2031.59 112.545 2031.65 112.477C2031.7 112.41 2031.73 112.33 2031.72 112.25C2031.71 112.175 2031.67 112.104 2031.6 112.049C2031.53 111.994 2031.44 111.959 2031.33 111.949C2031.01 111.893 2030.67 111.895 2030.34 111.956Z" fill="#C6003D"></path></svg> 